<svg width="272" height="51" viewBox="0 0 272 51" fill="none" xmlns="http://www.w3.org/2000/svg">
<path d="M10.404 0.147999V11.56H12.042V16.384H10.494V13H1.656V16.384H0.108V11.56H1.098C1.53 10.816 1.938 9.982 2.322 9.058C2.718 8.134 3.066 7.168 3.366 6.16C3.666 5.14 3.912 4.12 4.104 3.1C4.296 2.08 4.416 1.096 4.464 0.147999H10.404ZM5.886 1.606C5.838 2.302 5.718 3.088 5.526 3.964C5.346 4.84 5.112 5.74 4.824 6.664C4.548 7.576 4.236 8.458 3.888 9.31C3.552 10.162 3.192 10.912 2.808 11.56H8.802V1.606H5.886Z" fill="#ECECEC"/>
<path d="M104.574 36H102.954V30.006H96.366V36H94.746V23.148H96.366V28.584H102.954V23.148H104.574V36Z" fill="#ECECEC"/>
<path d="M198.124 16H196.18L190.366 9.484V16H188.746V3.148H190.366V9.376L196.036 3.148H197.872L192.292 9.394L198.124 16Z" fill="#ECECEC"/>
<path d="M150.016 45.492C150.016 45.588 150.012 45.732 150.004 45.924C149.996 46.116 149.984 46.308 149.968 46.5C149.96 46.692 149.952 46.844 149.944 46.956L153.388 41.568H154.684V48H153.7V44.208C153.7 44.08 153.7 43.912 153.7 43.704C153.708 43.496 153.716 43.292 153.724 43.092C153.732 42.884 153.74 42.728 153.748 42.624L150.328 48H149.02V41.568H150.016V45.492ZM163.631 41.568V48H162.683V43.896C162.683 43.728 162.687 43.552 162.695 43.368C162.711 43.184 162.727 43.004 162.743 42.828H162.707L160.607 48H159.719L157.679 42.828H157.643C157.667 43.188 157.679 43.556 157.679 43.932V48H156.731V41.568H158.135L160.163 46.74L162.227 41.568H163.631ZM168.168 41.448C168.72 41.448 169.192 41.568 169.584 41.808C169.984 42.048 170.288 42.388 170.496 42.828C170.712 43.26 170.82 43.768 170.82 44.352V44.988H166.416C166.432 45.716 166.616 46.272 166.968 46.656C167.328 47.032 167.828 47.22 168.468 47.22C168.876 47.22 169.236 47.184 169.548 47.112C169.868 47.032 170.196 46.92 170.532 46.776V47.7C170.204 47.844 169.88 47.948 169.56 48.012C169.24 48.084 168.86 48.12 168.42 48.12C167.812 48.12 167.272 47.996 166.8 47.748C166.336 47.5 165.972 47.132 165.708 46.644C165.452 46.148 165.324 45.544 165.324 44.832C165.324 44.128 165.44 43.524 165.672 43.02C165.912 42.516 166.244 42.128 166.668 41.856C167.1 41.584 167.6 41.448 168.168 41.448ZM168.156 42.312C167.652 42.312 167.252 42.476 166.956 42.804C166.668 43.124 166.496 43.572 166.44 44.148H169.716C169.708 43.604 169.58 43.164 169.332 42.828C169.084 42.484 168.692 42.312 168.156 42.312ZM173.514 41.568V44.244H177.006V41.568H178.062V48H177.006V45.132H173.514V48H172.458V41.568H173.514ZM181.094 45.492C181.094 45.588 181.09 45.732 181.082 45.924C181.074 46.116 181.062 46.308 181.046 46.5C181.038 46.692 181.03 46.844 181.022 46.956L184.466 41.568H185.762V48H184.778V44.208C184.778 44.08 184.778 43.912 184.778 43.704C184.786 43.496 184.794 43.292 184.802 43.092C184.81 42.884 184.818 42.728 184.826 42.624L181.406 48H180.098V41.568H181.094V45.492ZM194.613 40.26C193.693 40.26 192.969 40.568 192.441 41.184C191.913 41.8 191.649 42.644 191.649 43.716C191.649 44.78 191.893 45.624 192.381 46.248C192.877 46.864 193.617 47.172 194.601 47.172C194.977 47.172 195.333 47.14 195.669 47.076C196.005 47.012 196.333 46.932 196.653 46.836V47.772C196.333 47.892 196.001 47.98 195.657 48.036C195.321 48.092 194.917 48.12 194.445 48.12C193.573 48.12 192.845 47.94 192.261 47.58C191.677 47.22 191.237 46.708 190.941 46.044C190.653 45.38 190.509 44.6 190.509 43.704C190.509 42.84 190.665 42.08 190.977 41.424C191.297 40.76 191.765 40.244 192.381 39.876C192.997 39.5 193.745 39.312 194.625 39.312C195.529 39.312 196.317 39.48 196.989 39.816L196.557 40.728C196.293 40.608 195.997 40.5 195.669 40.404C195.349 40.308 194.997 40.26 194.613 40.26ZM199.105 48.144C198.885 48.144 198.695 48.066 198.535 47.91C198.379 47.75 198.301 47.56 198.301 47.34C198.301 47.112 198.379 46.92 198.535 46.764C198.695 46.604 198.885 46.524 199.105 46.524C199.333 46.524 199.525 46.604 199.681 46.764C199.837 46.92 199.915 47.112 199.915 47.34C199.915 47.56 199.837 47.75 199.681 47.91C199.525 48.066 199.333 48.144 199.105 48.144ZM207.614 48L206.582 45.348H203.186L202.166 48H201.074L204.422 39.396H205.394L208.73 48H207.614ZM205.298 41.796C205.274 41.732 205.234 41.616 205.178 41.448C205.122 41.28 205.066 41.108 205.01 40.932C204.962 40.748 204.922 40.608 204.89 40.512C204.834 40.76 204.77 41.004 204.698 41.244C204.626 41.476 204.566 41.66 204.518 41.796L203.546 44.388H206.258L205.298 41.796ZM210.484 48.144C210.264 48.144 210.074 48.066 209.914 47.91C209.758 47.75 209.68 47.56 209.68 47.34C209.68 47.112 209.758 46.92 209.914 46.764C210.074 46.604 210.264 46.524 210.484 46.524C210.712 46.524 210.904 46.604 211.06 46.764C211.216 46.92 211.294 47.112 211.294 47.34C211.294 47.56 211.216 47.75 211.06 47.91C210.904 48.066 210.712 48.144 210.484 48.144ZM221.981 48L220.949 45.348H217.553L216.533 48H215.441L218.789 39.396H219.761L223.097 48H221.981ZM219.665 41.796C219.641 41.732 219.601 41.616 219.545 41.448C219.489 41.28 219.433 41.108 219.377 40.932C219.329 40.748 219.289 40.608 219.257 40.512C219.201 40.76 219.137 41.004 219.065 41.244C218.993 41.476 218.933 41.66 218.885 41.796L217.913 44.388H220.625L219.665 41.796ZM223.789 44.136C223.789 42.728 224.001 41.632 224.425 40.848C224.849 40.056 225.533 39.56 226.477 39.36C226.997 39.248 227.505 39.148 228.001 39.06C228.497 38.972 228.961 38.892 229.393 38.82L229.573 39.744C229.293 39.784 228.977 39.836 228.625 39.9C228.273 39.956 227.925 40.016 227.581 40.08C227.237 40.136 226.941 40.192 226.693 40.248C226.173 40.36 225.761 40.632 225.457 41.064C225.153 41.488 224.981 42.152 224.941 43.056H225.013C225.125 42.904 225.277 42.748 225.469 42.588C225.669 42.428 225.905 42.292 226.177 42.18C226.457 42.068 226.773 42.012 227.125 42.012C227.957 42.012 228.585 42.28 229.009 42.816C229.433 43.352 229.645 44.048 229.645 44.904C229.645 45.616 229.521 46.212 229.273 46.692C229.025 47.172 228.681 47.532 228.241 47.772C227.801 48.004 227.289 48.12 226.705 48.12C225.817 48.12 225.109 47.78 224.581 47.1C224.053 46.42 223.789 45.432 223.789 44.136ZM226.789 47.244C227.309 47.244 227.729 47.076 228.049 46.74C228.369 46.404 228.529 45.828 228.529 45.012C228.529 44.356 228.405 43.84 228.157 43.464C227.917 43.08 227.517 42.888 226.957 42.888C226.605 42.888 226.285 42.968 225.997 43.128C225.709 43.28 225.469 43.456 225.277 43.656C225.085 43.856 224.949 44.024 224.869 44.16C224.869 44.552 224.897 44.932 224.953 45.3C225.009 45.668 225.105 46 225.241 46.296C225.385 46.584 225.581 46.816 225.829 46.992C226.085 47.16 226.405 47.244 226.789 47.244ZM234.369 41.448C235.161 41.448 235.797 41.724 236.277 42.276C236.765 42.828 237.009 43.66 237.009 44.772C237.009 45.868 236.765 46.7 236.277 47.268C235.797 47.836 235.157 48.12 234.357 48.12C233.861 48.12 233.449 48.028 233.121 47.844C232.801 47.652 232.549 47.432 232.365 47.184H232.293C232.309 47.32 232.325 47.492 232.341 47.7C232.357 47.908 232.365 48.088 232.365 48.24V50.88H231.309V41.568H232.173L232.317 42.444H232.365C232.557 42.164 232.809 41.928 233.121 41.736C233.433 41.544 233.849 41.448 234.369 41.448ZM234.177 42.336C233.521 42.336 233.057 42.52 232.785 42.888C232.521 43.256 232.381 43.816 232.365 44.568V44.772C232.365 45.564 232.493 46.176 232.749 46.608C233.013 47.032 233.497 47.244 234.201 47.244C234.593 47.244 234.913 47.136 235.161 46.92C235.417 46.704 235.605 46.412 235.725 46.044C235.853 45.668 235.917 45.24 235.917 44.76C235.917 44.024 235.773 43.436 235.485 42.996C235.205 42.556 234.769 42.336 234.177 42.336ZM237.567 41.568H238.695L240.087 45.228C240.207 45.548 240.315 45.856 240.411 46.152C240.507 46.44 240.579 46.716 240.627 46.98H240.675C240.723 46.78 240.799 46.52 240.903 46.2C241.007 45.872 241.115 45.544 241.227 45.216L242.535 41.568H243.675L240.903 48.888C240.679 49.496 240.387 49.98 240.027 50.34C239.675 50.7 239.187 50.88 238.563 50.88C238.371 50.88 238.203 50.868 238.059 50.844C237.915 50.828 237.791 50.808 237.687 50.784V49.944C237.775 49.96 237.879 49.976 237.999 49.992C238.127 50.008 238.259 50.016 238.395 50.016C238.763 50.016 239.059 49.912 239.283 49.704C239.515 49.496 239.695 49.22 239.823 48.876L240.159 48.024L237.567 41.568ZM248.496 41.568H249.648L246.9 44.664L249.876 48H248.652L245.748 44.736V48H244.692V41.568H245.748V44.688L248.496 41.568ZM256.401 44.772C256.401 45.836 256.129 46.66 255.585 47.244C255.049 47.828 254.321 48.12 253.401 48.12C252.833 48.12 252.325 47.992 251.877 47.736C251.437 47.472 251.089 47.092 250.833 46.596C250.577 46.092 250.449 45.484 250.449 44.772C250.449 43.708 250.717 42.888 251.253 42.312C251.789 41.736 252.517 41.448 253.437 41.448C254.021 41.448 254.533 41.58 254.973 41.844C255.421 42.1 255.769 42.476 256.017 42.972C256.273 43.46 256.401 44.06 256.401 44.772ZM251.541 44.772C251.541 45.532 251.689 46.136 251.985 46.584C252.289 47.024 252.769 47.244 253.425 47.244C254.073 47.244 254.549 47.024 254.853 46.584C255.157 46.136 255.309 45.532 255.309 44.772C255.309 44.012 255.157 43.416 254.853 42.984C254.549 42.552 254.069 42.336 253.413 42.336C252.757 42.336 252.281 42.552 251.985 42.984C251.689 43.416 251.541 44.012 251.541 44.772ZM263.247 43.188C263.247 43.588 263.127 43.9 262.887 44.124C262.647 44.348 262.339 44.5 261.963 44.58V44.628C262.363 44.684 262.711 44.828 263.007 45.06C263.303 45.284 263.451 45.636 263.451 46.116C263.451 46.66 263.247 47.112 262.839 47.472C262.439 47.824 261.775 48 260.847 48H258.075V41.568H260.835C261.291 41.568 261.699 41.62 262.059 41.724C262.427 41.82 262.715 41.988 262.923 42.228C263.139 42.46 263.247 42.78 263.247 43.188ZM262.179 43.32C262.179 43.016 262.067 42.796 261.843 42.66C261.627 42.516 261.271 42.444 260.775 42.444H259.131V44.208H260.583C261.647 44.208 262.179 43.912 262.179 43.32ZM262.359 46.116C262.359 45.748 262.219 45.484 261.939 45.324C261.659 45.164 261.247 45.084 260.703 45.084H259.131V47.148H260.727C261.255 47.148 261.659 47.072 261.939 46.92C262.219 46.76 262.359 46.492 262.359 46.116ZM267.425 41.46C268.209 41.46 268.789 41.632 269.165 41.976C269.541 42.32 269.729 42.868 269.729 43.62V48H268.961L268.757 47.088H268.709C268.429 47.44 268.133 47.7 267.821 47.868C267.517 48.036 267.093 48.12 266.549 48.12C265.965 48.12 265.481 47.968 265.097 47.664C264.713 47.352 264.521 46.868 264.521 46.212C264.521 45.572 264.773 45.08 265.277 44.736C265.781 44.384 266.557 44.192 267.605 44.16L268.697 44.124V43.74C268.697 43.204 268.581 42.832 268.349 42.624C268.117 42.416 267.789 42.312 267.365 42.312C267.029 42.312 266.709 42.364 266.405 42.468C266.101 42.564 265.817 42.676 265.553 42.804L265.229 42.012C265.509 41.86 265.841 41.732 266.225 41.628C266.609 41.516 267.009 41.46 267.425 41.46ZM267.737 44.892C266.937 44.924 266.381 45.052 266.069 45.276C265.765 45.5 265.613 45.816 265.613 46.224C265.613 46.584 265.721 46.848 265.937 47.016C266.161 47.184 266.445 47.268 266.789 47.268C267.333 47.268 267.785 47.12 268.145 46.824C268.505 46.52 268.685 46.056 268.685 45.432V44.856L267.737 44.892Z" fill="#ECECEC"/>
<path d="M21.0742 12.0212L84.8626 28.9637" stroke="#ECECEC" stroke-width="2" stroke-linecap="round"/>
<path d="M207 12.0212L270.788 28.9637" stroke="#ECECEC" stroke-width="2" stroke-linecap="round"/>
<path d="M178.789 12.0212L115.001 28.9637" stroke="#ECECEC" stroke-width="2" stroke-linecap="round"/>
</svg>
