<svg width="31" height="31" viewBox="0 0 31 31" fill="none" xmlns="http://www.w3.org/2000/svg">
<path d="M28.4173 21.8548V25.7298C28.4188 26.0895 28.3451 26.4456 28.201 26.7752C28.0569 27.1048 27.8455 27.4007 27.5804 27.6439C27.3154 27.8871 27.0024 28.0722 26.6616 28.1875C26.3209 28.3027 25.9598 28.3455 25.6015 28.3131C21.6268 27.8813 17.8089 26.5231 14.4544 24.3477C11.3335 22.3646 8.68756 19.7186 6.70442 16.5977C4.52147 13.228 3.16298 9.3915 2.739 5.39897C2.70672 5.04178 2.74917 4.68178 2.86365 4.3419C2.97812 4.00201 3.16211 3.68969 3.40391 3.42481C3.6457 3.15993 3.94 2.9483 4.26806 2.80339C4.59613 2.65848 4.95077 2.58347 5.30942 2.58313H9.18442C9.81127 2.57696 10.419 2.79894 10.8943 3.2077C11.3696 3.61645 11.68 4.18409 11.7677 4.8048C11.9313 6.04489 12.2346 7.26249 12.6719 8.43438C12.8457 8.8967 12.8833 9.39915 12.7803 9.88219C12.6773 10.3652 12.4379 10.8086 12.0907 11.1598L10.4502 12.8002C12.289 16.034 14.9665 18.7115 18.2002 20.5502L19.8407 18.9098C20.1919 18.5625 20.6352 18.3232 21.1183 18.2202C21.6013 18.1172 22.1038 18.1548 22.5661 18.3286C23.738 18.7658 24.9556 19.0692 26.1957 19.2327C26.8231 19.3212 27.3961 19.6373 27.8058 20.1207C28.2154 20.6042 28.4331 21.2213 28.4173 21.8548Z" stroke="#2B2B2B" stroke-width="2" stroke-linecap="round" stroke-linejoin="round"/>
</svg>
