<svg width="31" height="31" viewBox="0 0 31 31" fill="none" xmlns="http://www.w3.org/2000/svg">
<path d="M28.4173 21.855V25.73C28.4188 26.0898 28.3451 26.4458 28.201 26.7755C28.0569 27.1051 27.8455 27.4009 27.5804 27.6441C27.3154 27.8873 27.0024 28.0725 26.6616 28.1877C26.3209 28.303 25.9598 28.3458 25.6015 28.3134C21.6268 27.8815 17.8089 26.5233 14.4544 24.348C11.3335 22.3648 8.68756 19.7189 6.70442 16.598C4.52147 13.2283 3.16298 9.39175 2.739 5.39921C2.70672 5.04202 2.74917 4.68203 2.86365 4.34214C2.97812 4.00226 3.16211 3.68993 3.40391 3.42505C3.6457 3.16017 3.94 2.94854 4.26806 2.80363C4.59613 2.65873 4.95077 2.58371 5.30942 2.58338H9.18442C9.81127 2.57721 10.419 2.79919 10.8943 3.20794C11.3696 3.61669 11.68 4.18433 11.7677 4.80504C11.9313 6.04513 12.2346 7.26273 12.6719 8.43463C12.8457 8.89695 12.8833 9.39939 12.7803 9.88243C12.6773 10.3655 12.4379 10.8089 12.0907 11.16L10.4502 12.8005C12.289 16.0342 14.9665 18.7117 18.2002 20.5505L19.8407 18.91C20.1919 18.5628 20.6352 18.3234 21.1183 18.2204C21.6013 18.1174 22.1038 18.155 22.5661 18.3288C23.738 18.7661 24.9556 19.0694 26.1957 19.233C26.8231 19.3215 27.3961 19.6375 27.8058 20.121C28.2154 20.6044 28.4331 21.2216 28.4173 21.855Z" stroke="#F9F9F9" stroke-width="2" stroke-linecap="round" stroke-linejoin="round"/>
</svg>
